<?xml version="1.0" encoding="utf-8"?>
<!-- Generator: Adobe Illustrator 18.0.0, SVG Export Plug-In . SVG Version: 6.00 Build 0)  -->
<!DOCTYPE svg PUBLIC "-//W3C//DTD SVG 1.1//EN" "http://www.w3.org/Graphics/SVG/1.1/DTD/svg11.dtd">
<svg version="1.1" id="Capa_1" xmlns="http://www.w3.org/2000/svg" xmlns:xlink="http://www.w3.org/1999/xlink" x="0px" y="0px"
	 viewBox="0 515.9 51 51" enable-background="new 0 515.9 51 51" xml:space="preserve">
<path d="M25.5,564h15.1c1.6,0,2.8-1.3,2.8-2.8v-36.6v-3c0-1.6-1.3-2.8-2.8-2.8H25.5h-5v0.9c0,0.1,0,0.2,0,0.3v6.1v1.7
	c0,2.2-1.8,4-4,4h-1.6H8.8c-0.1,0-0.2,0-0.2,0h-1v29.5c0,1.6,1.3,2.8,2.8,2.8h3.1L25.5,564L25.5,564z M26,554.5h-9.9
	c-0.7,0-1.3-0.6-1.3-1.3c0-0.7,0.6-1.3,1.3-1.3H26c0.7,0,1.3,0.6,1.3,1.3C27.3,553.9,26.8,554.5,26,554.5z M35.9,547.7H16.2
	c-0.7,0-1.3-0.6-1.3-1.3c0-0.7,0.6-1.3,1.3-1.3h19.7c0.7,0,1.3,0.6,1.3,1.3C37.2,547.1,36.6,547.7,35.9,547.7z M16.2,537.8h19.7
	c0.7,0,1.3,0.6,1.3,1.3c0,0.7-0.6,1.3-1.3,1.3H16.2c-0.7,0-1.3-0.6-1.3-1.3C14.9,538.4,15.4,537.8,16.2,537.8z"/>
<path d="M8.8,530.1h7.7l0,0c1.3,0,2.3-1.1,2.3-2.3l0,0v-7.8c0-0.7-0.6-1.2-1.2-1.2c-0.3,0-0.6,0.1-0.8,0.4l-8.9,8.9
	C7.2,528.8,7.7,530.1,8.8,530.1z"/>
</svg>
